<svg id="Layer_1" data-name="Layer 1" xmlns="http://www.w3.org/2000/svg" viewBox="0 0 988.33 220.23"><defs><style>.cls-1{fill:#fff;}</style></defs><title>Logo_White_Farsi</title><path class="cls-1" d="M759.13,188.64a7.37,7.37,0,0,0-7.37,7.37V305.17A31.77,31.77,0,0,1,720,336.9H591.82V271.8a41.45,41.45,0,0,0-82.89,0v38.4a41.49,41.49,0,0,0,41.44,41.44h25.3a26.75,26.75,0,0,1-25.3,18.17,7.37,7.37,0,1,0,0,14.74,41.51,41.51,0,0,0,40.56-32.91H720a46.53,46.53,0,0,0,46.47-46.47V196A7.37,7.37,0,0,0,759.13,188.64ZM523.67,310.2V271.8a26.71,26.71,0,0,1,53.41,0v65.1H550.37A26.73,26.73,0,0,1,523.67,310.2Z" transform="translate(71.63 -187.35)"/><path class="cls-1" d="M444.31,230a40.83,40.83,0,0,0-29.5,11.85,42.66,42.66,0,0,0-12.75,30.26V310.2a7.37,7.37,0,0,0,14.74,0V272.14a27.85,27.85,0,0,1,8.33-19.74,25.93,25.93,0,0,1,18.9-7.63,26.83,26.83,0,0,1,26.18,26.7V321a16,16,0,0,1-15.95,15.95H389.53a7.15,7.15,0,0,0-1.68.2,7.07,7.07,0,0,0-1.67-.2A16,16,0,0,1,370.24,321V237.73a7.38,7.38,0,0,0-14.75,0V321a16,16,0,0,1-15.94,15.95H245.36a26.73,26.73,0,0,1-26.7-26.7V270.43a26.73,26.73,0,0,1,26.7-26.7,7.37,7.37,0,0,0,0-14.74,41.49,41.49,0,0,0-41.44,41.44V310.2a41.49,41.49,0,0,0,41.44,41.44h94.19a30.63,30.63,0,0,0,23.31-10.77,30.66,30.66,0,0,0,23.32,10.77,7,7,0,0,0,1.67-.2,7.15,7.15,0,0,0,1.68.2h64.73A30.73,30.73,0,0,0,485,321V271.47A41.65,41.65,0,0,0,444.31,230Z" transform="translate(71.63 -187.35)"/><path class="cls-1" d="M278.69,248.78a9.76,9.76,0,1,0-9.76-9.76A9.76,9.76,0,0,0,278.69,248.78Z" transform="translate(71.63 -187.35)"/><path class="cls-1" d="M303.15,248.78a9.76,9.76,0,1,0-9.76-9.76A9.76,9.76,0,0,0,303.15,248.78Z" transform="translate(71.63 -187.35)"/><path class="cls-1" d="M434.79,364.69a9.76,9.76,0,1,0,9.76,9.76A9.76,9.76,0,0,0,434.79,364.69Z" transform="translate(71.63 -187.35)"/><circle class="cls-1" cx="943.89" cy="10.92" r="9.76"/><path class="cls-1" d="M916.7,271.8a41.45,41.45,0,0,0-82.89,0v38.4a41.24,41.24,0,0,0,9.78,26.7h-6.65a31.76,31.76,0,0,1-31.72-31.73V196a7.37,7.37,0,0,0-14.74,0V305.17a46.52,46.52,0,0,0,46.46,46.47H886A30.73,30.73,0,0,0,916.7,321v-8.4h0ZM902,321a16,16,0,0,1-16,15.95H875.25a26.73,26.73,0,0,1-26.7-26.7V271.8a26.71,26.71,0,0,1,53.41,0v36.57h0Z" transform="translate(71.63 -187.35)"/><path class="cls-1" d="M-18.79,344.33a7.39,7.39,0,0,1,0,10.43l-38,38A7.35,7.35,0,0,1-62,394.91a7.34,7.34,0,0,1-5.21-2.16,7.36,7.36,0,0,1,0-10.42l38-38A7.38,7.38,0,0,1-18.79,344.33ZM-59,320.4l18.76-18.76a7.38,7.38,0,0,0,0-10.43,7.38,7.38,0,0,0-10.42,0L-69.47,310a7.36,7.36,0,0,0,0,10.42,7.35,7.35,0,0,0,5.21,2.16A7.34,7.34,0,0,0-59,320.4ZM23.9,365.82-5.27,395a7.36,7.36,0,0,0,0,10.42,7.34,7.34,0,0,0,5.21,2.16,7.35,7.35,0,0,0,5.21-2.16l29.17-29.17A7.37,7.37,0,1,0,23.9,365.82ZM138.19,233.93v70.72a46.29,46.29,0,0,1-13.65,32.94L79.42,382.71a18.06,18.06,0,0,1-30.84-12.77V354.55a3.33,3.33,0,0,0-3.33-3.32H20.89a46.59,46.59,0,0,1-46.58-46.58V280.29A3.34,3.34,0,0,0-29,277H-44.4a18,18,0,0,1-16.69-11.15,18,18,0,0,1,3.91-19.69L-12,201a46.32,46.32,0,0,1,32.94-13.64H91.61a46.57,46.57,0,0,1,46.58,46.58Zm-14.74,0a31.84,31.84,0,0,0-31.84-31.84H20.89a31.62,31.62,0,0,0-22.52,9.33l-45.12,45.12a3.17,3.17,0,0,0-.72,3.63,3.16,3.16,0,0,0,3.07,2.05H-29a18,18,0,0,1,12.77,5.3,18,18,0,0,1,5.3,12.77v24.36a31.85,31.85,0,0,0,31.84,31.84H45.25a18.1,18.1,0,0,1,18.07,18.07v15.39A3.32,3.32,0,0,0,69,372.29l45.13-45.13a31.6,31.6,0,0,0,9.33-22.51ZM92.21,219.56a9.73,9.73,0,1,0,13.77,0A9.73,9.73,0,0,0,92.21,219.56Zm-6.5,20.27a41.64,41.64,0,1,1-58.89,0A41.65,41.65,0,0,1,85.71,239.83ZM75.38,250.16a27,27,0,1,0,0,38.23A27,27,0,0,0,75.38,250.16Z" transform="translate(71.63 -187.35)"/></svg>